<svg xmlns="http://www.w3.org/2000/svg" width="469.335" height="541.001" viewBox="0 0 469.335 541.001">
  <g id="Group_15" data-name="Group 15" transform="translate(2212 6684)">
    <path id="Subtraction_1" data-name="Subtraction 1" d="M234.668,595.309a10.682,10.682,0,0,1-5.291-1.408l-224-128A10.682,10.682,0,0,1,0,456.642V221.974a10.682,10.682,0,0,1,5.377-9.258l224-128a10.646,10.646,0,0,1,10.58,0L274.1,104.223,263.429,122.7l-28.763-16.435L21.334,228.161V450.454l213.332,121.9L448,450.454V228.162L420.585,212.5l10.664-18.471,32.708,18.69a10.685,10.685,0,0,1,5.378,9.258V456.642a10.682,10.682,0,0,1-5.377,9.258l-224,128A10.681,10.681,0,0,1,234.668,595.309Z" transform="translate(-2212 -6738.308)" fill="#c9bab7"/>
    <rect id="Rectangle_4" data-name="Rectangle 4" width="44" height="213" rx="10" transform="translate(-1899 -6684)" fill="#c9bab7"/>
    <rect id="Rectangle_7" data-name="Rectangle 7" width="44" height="213" rx="10" transform="translate(-1770.5 -6599.5) rotate(90)" fill="#c9bab7"/>
  </g>
</svg>
