<svg xmlns="http://www.w3.org/2000/svg" width="469.335" height="460.02" viewBox="0 0 469.335 460.02">
  <g id="Group_17" data-name="Group 17" transform="translate(629.001 6649.02)">
    <g id="right-arrow" transform="translate(-235.573 -6649.02) rotate(90)">
      <g id="Group_12" data-name="Group 12" transform="translate(0 41.346)">
        <path id="Path_86" data-name="Path 86" d="M277.758,147.793,175.821,45.853a15.494,15.494,0,0,0-21.849,0l-9.255,9.257a15.334,15.334,0,0,0-4.509,10.924,15.637,15.637,0,0,0,4.509,11.052l59.469,59.6H15.249A15.076,15.076,0,0,0,0,151.876v13.088c0,8.521,6.731,15.862,15.249,15.862H204.86l-60.141,59.933a15.3,15.3,0,0,0,0,21.693l9.255,9.228a15.5,15.5,0,0,0,21.849-.021L277.761,169.72a15.58,15.58,0,0,0,0-21.927Z" transform="translate(0 -41.346)" fill="#c9bab7"/>
      </g>
    </g>
    <path id="Subtraction_2" data-name="Subtraction 2" d="M345.667,662a10.682,10.682,0,0,1-5.29-1.408l-224-128A10.681,10.681,0,0,1,111,523.334V306.5h21.334V517.146l213.332,121.9L559,517.146V306.5h21.335V523.334a10.68,10.68,0,0,1-5.377,9.258l-224,128A10.683,10.683,0,0,1,345.667,662Z" transform="translate(-740 -6851)" fill="#c9bab7"/>
  </g>
</svg>
