<svg xmlns="http://www.w3.org/2000/svg" width="512" height="511.926" viewBox="0 0 512 511.926">
  <path id="house" d="M392,511.963H120a120.136,120.136,0,0,1-120-120V223.692a120.693,120.693,0,0,1,47.226-95.415l136-103.729a120.291,120.291,0,0,1,145.548,0L372,57.488V31.963c1.056-26.536,38.953-26.516,40,0V97.874a20,20,0,0,1-32.123,15.908L304.522,56.359a80.2,80.2,0,0,0-97.039-.005l-136,103.729A80.458,80.458,0,0,0,40,223.692V391.963a80.091,80.091,0,0,0,80,80H392a80.091,80.091,0,0,0,80-80V223.692c0-25.1-11.637-48.959-31.129-63.827a20,20,0,1,1,24.258-31.8C494.478,150.445,512,186.2,512,223.692V391.963A120.136,120.136,0,0,1,392,511.963Zm-176-281a25,25,0,0,0-25,25c1.321,33.17,48.691,33.145,50,0A25,25,0,0,0,216,230.963Zm105,25c-1.321,33.17-48.691,33.145-50,0C272.321,222.792,319.691,222.818,321,255.962Zm-80,80c-1.321,33.17-48.691,33.145-50,0C192.321,302.792,239.691,302.818,241,335.962Zm80,0c-1.321,33.17-48.691,33.145-50,0C272.321,302.792,319.691,302.818,321,335.962Z" transform="translate(0 -0.037)" fill="#c9bab7"/>
</svg>
