<svg xmlns="http://www.w3.org/2000/svg" width="512" height="416" viewBox="0 0 512 416">
  <path id="mail-inbox-app" d="M452,48H60A60.068,60.068,0,0,0,0,108v49.495L220.191,321.276a59.635,59.635,0,0,0,71.618,0L512,157.495V108A60.068,60.068,0,0,0,452,48Zm20,89.4L267.937,289.18a19.877,19.877,0,0,1-23.873,0L40,137.4V108A20.023,20.023,0,0,1,60,88H452a20.023,20.023,0,0,1,20,20Zm0,99.7,40-29.752V404a60.068,60.068,0,0,1-60,60H60A60.068,60.068,0,0,1,0,404V207.347L40,237.1V404a20.023,20.023,0,0,0,20,20H452a20.023,20.023,0,0,0,20-20Z" transform="translate(0 -48)" fill="#c9bab7"/>
</svg>
