<svg xmlns="http://www.w3.org/2000/svg" width="469.334" height="512" viewBox="0 0 469.334 512">
  <g id="Group_16" data-name="Group 16" transform="translate(1355 6693)">
    <path id="Path_90" data-name="Path 90" d="M485.291,129.408l-224-128a10.645,10.645,0,0,0-10.581,0l-224,128a10.665,10.665,0,0,0-5.376,9.259V373.334a10.665,10.665,0,0,0,5.376,9.259l224,128a10.645,10.645,0,0,0,10.582,0l224-128a10.665,10.665,0,0,0,5.376-9.259V138.667A10.668,10.668,0,0,0,485.291,129.408ZM469.333,367.147,256,489.045,42.667,367.147V144.853L256,22.955l213.333,121.9Z" transform="translate(-1376.334 -6693)" fill="#c9bab7"/>
    <g id="right-arrow" transform="translate(-1234.792 -6501.558)">
      <g id="Group_12" data-name="Group 12" transform="translate(0 0)">
        <path id="Path_86" data-name="Path 86" d="M225.26,127.674,142.589,45a12.565,12.565,0,0,0-17.72,0l-7.506,7.508a12.436,12.436,0,0,0-3.657,8.859,12.681,12.681,0,0,0,3.657,8.963l48.229,48.335H12.367A12.226,12.226,0,0,0,0,130.985V141.6c0,6.91,5.459,12.864,12.367,12.864,213.2-9.311-.121.05,212.895-9.006a12.635,12.635,0,0,0,0-17.783Z" transform="translate(0 -41.346)" fill="#c9bab7"/>
      </g>
    </g>
  </g>
</svg>
