<svg xmlns="http://www.w3.org/2000/svg" width="405.432" height="416" viewBox="0 0 405.432 416">
  <g id="Group_13" data-name="Group 13" transform="translate(2575 3855)">
    <g id="right-arrow" transform="translate(-2575 -3855)">
      <g id="Group_12" data-name="Group 12" transform="translate(0 0)">
        <path id="Path_86" data-name="Path 86" d="M390.227,190.9,247.013,47.678a21.767,21.767,0,0,0-30.7,0l-13,13.006a21.543,21.543,0,0,0-6.335,15.347,21.968,21.968,0,0,0,6.335,15.527l83.549,83.733H21.424A21.18,21.18,0,0,0,0,196.631v18.387C0,226.989,9.456,237.3,21.424,237.3c369.34-16.13-.21.086,368.806-15.6a21.888,21.888,0,0,0,0-30.806Z" transform="translate(0 -41.346)" fill="#c9bab7"/>
      </g>
    </g>
    <g id="right-arrow-2" data-name="right-arrow" transform="translate(-2566.134 -3634.957)">
      <g id="Group_12-2" data-name="Group 12" transform="translate(0 0)">
        <path id="Path_86-2" data-name="Path 86" d="M6.339,87.753,149.552,230.97a21.767,21.767,0,0,0,30.7,0l13-13.006a21.543,21.543,0,0,0,6.335-15.347,21.968,21.968,0,0,0-6.335-15.527L109.7,103.358H375.141a21.18,21.18,0,0,0,21.424-21.34V63.631c0-11.971-9.456-22.285-21.424-22.285-369.34,16.13.21-.086-368.806,15.6a21.888,21.888,0,0,0,0,30.806Z" transform="translate(0 -41.346)" fill="#c9bab7"/>
      </g>
    </g>
  </g>
</svg>
