<svg xmlns="http://www.w3.org/2000/svg" width="427.164" height="512" viewBox="0 0 427.164 512">
  <g id="user" transform="translate(0 0)">
    <path id="Path_87" data-name="Path 87" d="M210.352,246.633c33.883,0,63.219-12.152,87.2-36.129s36.125-53.3,36.125-87.191S321.52,60.1,297.543,36.121,244.231,0,210.352,0s-63.219,12.152-87.191,36.125S87.032,89.434,87.032,123.313s12.156,63.223,36.129,87.2,53.316,36.125,87.191,36.125ZM144.379,57.34C162.774,38.945,184.352,30,210.352,30s47.578,8.941,65.977,27.336,27.34,39.98,27.34,65.973-8.945,47.578-27.34,65.977-39.98,27.34-65.977,27.34-47.57-8.945-65.973-27.34-27.344-39.977-27.344-65.977,8.945-47.574,27.344-65.973Zm0,0" fill="#c9bab7"/>
    <path id="Path_88" data-name="Path 88" d="M426.129,393.7a304.594,304.594,0,0,0-4.148-32.352,254.893,254.893,0,0,0-7.957-32.527,160.68,160.68,0,0,0-13.375-30.336,114.354,114.354,0,0,0-20.16-26.277,88.9,88.9,0,0,0-28.965-18.2,100.1,100.1,0,0,0-36.977-6.691c-5.227,0-10.281,2.145-20.043,8.5-6.008,3.918-13.035,8.449-20.879,13.461-6.707,4.273-15.793,8.277-27.016,11.9a104.905,104.905,0,0,1-66.086,0c-11.211-3.621-20.3-7.625-27-11.9-7.77-4.965-14.8-9.5-20.9-13.469-9.754-6.355-14.809-8.5-20.035-8.5a99.975,99.975,0,0,0-36.973,6.7,88.828,88.828,0,0,0-28.969,18.2A114.382,114.382,0,0,0,26.5,298.488a160.977,160.977,0,0,0-13.371,30.34,255.5,255.5,0,0,0-7.953,32.523,302.518,302.518,0,0,0-4.148,32.363C.344,403.492,0,413.668,0,423.949c0,26.727,8.5,48.363,25.25,64.32C41.8,504.015,63.687,512,90.316,512H336.847c26.621,0,48.512-7.984,65.063-23.73,16.758-15.945,25.254-37.59,25.254-64.324,0-10.316-.352-20.492-1.035-30.242Zm-44.906,72.828C370.289,476.937,355.773,482,336.844,482H90.317c-18.934,0-33.449-5.059-44.379-15.461C35.215,456.328,30,442.394,30,423.949c0-9.594.316-19.066.949-28.16a272.865,272.865,0,0,1,3.75-29.137,225.342,225.342,0,0,1,7-28.676,131.052,131.052,0,0,1,10.883-24.668A84.779,84.779,0,0,1,67.4,293.89a58.975,58.975,0,0,1,19.27-11.98,69.044,69.044,0,0,1,23.629-4.559c1.051.559,2.922,1.625,5.953,3.6,6.168,4.02,13.277,8.605,21.137,13.625,8.859,5.648,20.273,10.75,33.91,15.152a134.884,134.884,0,0,0,84.543,0c13.648-4.41,25.059-9.508,33.93-15.164,8.043-5.141,14.953-9.594,21.121-13.617,3.031-1.973,4.9-3.043,5.953-3.6a69.089,69.089,0,0,1,23.637,4.559,59.061,59.061,0,0,1,19.266,11.98,84.548,84.548,0,0,1,14.816,19.422,130.612,130.612,0,0,1,10.887,24.66,224.817,224.817,0,0,1,7,28.676,275.159,275.159,0,0,1,3.75,29.145v.008c.637,9.059.957,18.527.961,28.148,0,18.449-5.215,32.379-15.937,42.582Zm0,0" fill="#c9bab7"/>
  </g>
</svg>
